<svg width="471" height="250" viewBox="0 0 471 250" fill="none" xmlns="http://www.w3.org/2000/svg">
<path d="M101.056 23.1058C102.868 23.0782 104.681 23.0591 106.493 23.0433C107.503 23.0317 108.512 23.0201 109.552 23.0081C113.759 23.1254 117.882 23.5858 122.056 24.1058C122.419 25.3175 122.783 26.5292 123.157 27.7776C123.398 28.578 123.638 29.3783 123.885 30.2029C124.421 31.9883 124.956 33.7738 125.49 35.5594C126.901 40.2684 128.319 44.9749 129.755 49.6761C130.026 50.5659 130.296 51.4556 130.575 52.3724C131.093 54.0758 131.614 55.7783 132.138 57.4798C133.411 61.6746 134.46 65.7486 135.056 70.1058C136.703 67.0043 137.887 63.8804 139.009 60.555C139.378 59.4701 139.748 58.3852 140.128 57.2674C140.711 55.5477 140.711 55.5477 141.306 53.7933C144.621 44.0993 148.13 34.5679 152.056 25.1058C158.656 25.1058 165.256 25.1058 172.056 25.1058C171.347 28.6519 170.733 31.2071 169.389 34.4359C169.047 35.2638 168.705 36.0918 168.352 36.9448C167.98 37.8332 167.608 38.7217 167.224 39.637C166.642 41.0415 166.642 41.0415 166.048 42.4744C164.784 45.5201 163.514 48.563 162.243 51.6058C160.937 54.7431 159.632 57.8808 158.327 61.0186C157.459 63.1042 156.591 65.1895 155.722 67.2746C153.228 73.2642 150.763 79.2643 148.337 85.2816C147.799 86.6085 147.261 87.9353 146.723 89.262C145.77 91.617 144.824 93.9749 143.887 96.3362C139.255 107.716 133.843 116.857 122.243 121.981C115.639 124.2 108.759 123.446 102.056 122.106C102.056 117.156 102.056 112.206 102.056 107.106C105.088 106.982 105.088 106.982 108.181 106.856C113.551 106.418 117.111 106.05 121.056 102.106C123.448 98.6643 125.231 95.8456 124.801 91.565C123.832 87.0636 122.301 82.8753 120.704 78.5628C120.367 77.6397 120.03 76.7167 119.683 75.7656C118.604 72.8147 117.517 69.8665 116.431 66.9183C115.723 64.9868 115.016 63.0552 114.31 61.1234C111.548 53.5801 108.78 46.0393 105.971 38.5135C105.644 37.6346 105.317 36.7558 104.98 35.8503C104.362 34.1913 103.742 32.5333 103.119 30.8765C101.056 25.3296 101.056 25.3296 101.056 23.1058Z" fill="#DE7519"/>
<path d="M383.118 31.2312C384.708 23.5471 387.359 18.0412 396.056 19.1062C399.502 21.9615 401.292 25.0968 403.255 29.0789L404.98 32.5535C405.568 33.7584 406.156 34.9638 406.743 36.1687C407.342 37.3779 407.942 38.5872 408.542 39.7957C412.886 48.598 412.887 48.5985 414.056 52.1062C414.9 51.8651 414.9 51.8649 415.761 51.6189C416.552 51.393 417.343 51.1671 418.158 50.9344C419.034 50.6838 419.91 50.4327 420.813 50.1746C422.733 49.6262 424.654 49.079 426.576 48.533C430.833 47.3216 435.087 46.1072 439.322 44.8172L442.931 43.7312L446.048 42.7703C449.507 42.0067 452.524 41.8555 456.056 42.1062C458.993 44.2309 458.994 44.2314 461.056 47.1062C461.474 50.5698 461.431 52.4682 459.65 55.5008L457.556 57.9187L455.111 60.7508C438.764 78.8593 438.764 78.8594 434.276 82.5828C432.842 84.0132 432.842 84.0131 433.214 85.8767C433.492 86.6123 433.77 87.3484 434.056 88.1062C434.421 89.1239 434.787 90.1417 435.163 91.1902C435.613 92.3715 436.062 93.5532 436.525 94.7703C436.765 95.4034 437.006 96.0369 437.253 96.6892C437.76 98.0225 438.267 99.3558 438.776 100.688C439.555 102.73 440.332 104.774 441.107 106.817C443.378 113.049 443.378 113.05 446.056 119.106C446.757 126.238 446.757 126.239 443.681 130.044C440.224 132.76 439.744 133.129 435.243 132.981C424.744 131.64 415.234 126.346 406.052 121.364C402.819 120.007 402.192 119.898 399.056 121.106C397.348 122.493 397.348 122.493 395.822 124.266L394.083 126.171L392.306 128.169L390.482 130.178C388.999 131.814 387.524 133.457 386.056 135.106C382.181 133.231 382.181 133.231 381.056 132.106C379.643 131.95 378.222 131.856 376.802 131.79L374.214 131.663L371.493 131.544L368.761 131.413C366.526 131.306 364.291 131.204 362.056 131.106C361.911 125.637 362.346 120.915 363.556 115.544C364.666 110.604 365.212 106.173 365.056 101.106C364.325 100.794 363.593 100.482 362.84 100.16C359.513 98.7335 356.191 97.2949 352.868 95.8562L349.382 94.3679L346.013 92.9031C344.992 92.4632 343.97 92.0233 342.918 91.5701C339.912 90.033 337.539 88.3917 335.056 86.1062C334.106 83.0671 333.827 81.0796 334.556 77.9812C339.556 71.7309 348.481 70.331 355.809 68.3865C357.817 67.8531 359.822 67.3051 361.826 66.7547C371.613 64.1063 371.613 64.1062 375.056 64.1062L375.572 61.0281C376.903 53.3679 378.52 46.1313 381.15 38.7898C381.999 36.2744 382.599 33.8319 383.118 31.2312ZM393.056 48.1062C391.926 50.3659 391.926 50.3662 390.595 55.9832L390.056 58.2937C389.034 62.5648 388.053 66.8068 387.431 71.157L387.056 74.1062C385.311 74.5335 383.567 74.9638 381.826 75.4031L379.056 76.1062C377.112 76.5938 375.167 77.0818 373.226 77.5799C372.531 77.7588 371.856 77.9325 371.181 78.1062C367.629 78.9908 364.723 79.4391 362.056 82.1062L364.146 83.3133L366.993 84.9187C371.311 87.3778 375.588 89.0542 380.3 90.5613C381.187 90.8361 381.187 90.8369 382.056 91.1062C381.595 93.668 381.137 96.2307 380.683 98.7937L380.118 101.981C378.793 109.344 377.675 116.648 377.056 124.106H378.056C379.265 122.932 380.468 121.752 381.649 120.549C386.516 115.561 391.358 110.142 397.056 106.106C399.734 105.027 400.909 105.061 403.713 105.91C404.728 106.347 405.712 106.772 406.697 107.196L409.939 108.573L413.306 110.044C416.512 111.414 419.718 112.784 422.916 114.172C423.997 114.643 423.997 114.644 425.056 115.106C425.913 112.677 426.122 111.354 425.451 108.835C424.94 107.589 424.94 107.589 424.439 106.368L423.349 103.632C420.99 97.8993 418.589 92.2816 417.111 86.2508C419.071 78.44 419.071 78.44 425.181 72.5437C428.069 69.5262 430.554 67.3733 431.056 63.1062C426.906 62.9258 423.252 63.1851 419.181 64.0437C414.479 65.0606 409.844 65.6429 405.056 66.1062C404.177 64.5105 403.296 62.9153 402.408 61.325L401.306 59.3562C398.945 55.0541 396.769 51.4178 393.056 48.1062Z" fill="#DF731B"/>
<path d="M170.056 30.1058C172.366 30.4358 174.676 30.7658 177.056 31.1058C176.37 35.4375 174.896 39.3173 173.24 43.3519C172.951 44.0634 172.663 44.775 172.366 45.5081C171.414 47.8552 170.454 50.1994 169.493 52.5433C168.824 54.1836 168.154 55.8239 167.484 57.4642C165.713 61.794 163.933 66.1203 162.151 70.4456C161.057 73.103 159.966 75.7617 158.876 78.4207C157.103 82.7427 155.318 87.0596 153.524 91.3731C152.843 93.0129 152.166 94.6538 151.492 96.2962C141.531 120.528 141.531 120.528 128.892 127.258C124.825 128.474 120.961 128.317 116.743 128.231C115.489 128.217 115.489 128.217 114.21 128.203C112.159 128.18 110.107 128.144 108.056 128.106C107.561 125.631 107.561 125.631 107.056 123.106C107.734 123.08 108.412 123.054 109.111 123.028C117.829 122.496 126.736 120.626 133.241 114.35C135.583 111.454 137.183 108.303 138.814 104.977C139.161 104.274 139.509 103.571 139.867 102.847C143.749 94.8663 147.037 86.6637 150.306 78.4183C151.275 75.9963 152.247 73.5753 153.218 71.1544C153.872 69.5269 154.524 67.8992 155.176 66.2712C158.387 58.2533 161.681 50.2699 164.993 42.2933C165.513 41.0417 166.032 39.7902 166.551 38.5386C167.718 35.7272 168.886 32.9162 170.056 30.1058Z" fill="#FAD2B9"/>
<path d="M92.0558 15.1058C92.7158 15.1058 93.3758 15.1058 94.0558 15.1058C95.3098 16.68 95.3098 16.68 96.6183 18.7933C97.0528 19.4778 97.4872 20.1623 97.9348 20.8675C101.54 28.0657 101.149 37.8771 99.1848 45.4769C96.3411 52.9448 93.0101 57.5485 85.9047 61.2161C79.2602 64.1161 73.623 64.6054 66.4308 64.3558C65.4267 64.3377 64.4225 64.3197 63.3879 64.3011C60.9428 64.2545 58.4999 64.1891 56.0558 64.1058C56.0674 65.1589 56.0791 66.2121 56.091 67.2972C56.1631 76.9609 55.8043 86.4697 55.0558 96.1058C48.7858 96.1058 42.5158 96.1058 36.0558 96.1058C36.0558 94.1258 36.0558 92.1458 36.0558 90.1058C40.6758 90.1058 45.2958 90.1058 50.0558 90.1058C50.0384 88.2573 50.0384 88.2573 50.0207 86.3714C49.9615 77.2282 50.0386 68.2069 51.0558 59.1058C52.2392 59.0684 53.4226 59.031 54.6418 58.9925C66.2738 58.5444 77.7825 58.0573 87.0558 50.1058C94.1458 41.8612 94.8276 31.569 94.0558 21.1058C93.2128 17.5504 93.2128 17.5504 92.0558 15.1058Z" fill="#FAD2B8"/>
<path d="M34.0556 0.105454C78.8521 -0.250552 78.8528 -0.250285 88.5869 9.29295C95.3181 17.5996 95.8739 25.2253 94.8017 35.5508C93.6819 42.3168 90.4479 48.1791 85.2353 52.6758C74.5979 59.8679 63.3809 59.468 51.0556 59.1055L51.0908 61.0625C51.1838 70.7758 50.6097 80.4102 50.0556 90.1055H31.0556C30.8341 73.3799 31.2991 56.7528 31.9931 40.043C32.0367 38.9837 32.0801 37.9243 32.125 36.833C32.6334 24.5807 33.2208 12.3402 34.0556 0.105454ZM52.0556 43.1055C60.8028 43.1055 65.3747 44.5121 72.0556 40.1055C75.006 36.7665 76.2918 33.4192 76.4931 28.9805C76.0307 24.8846 75.8252 23.1267 73.0556 20.1055C67.0756 16.1057 67.0751 16.1055 52.0556 16.1055V43.1055Z" fill="#DE7418"/>
<path d="M52.0558 16.1058C67.4237 16.1058 67.4237 16.1058 73.0558 20.1058C73.3858 21.0958 73.7158 22.0858 74.0558 23.1058C68.4458 22.7758 62.8358 22.4458 57.0558 22.1058C57.0558 29.0358 57.0558 35.9658 57.0558 43.1058C55.4058 43.1058 53.7558 43.1058 52.0558 43.1058C52.0558 34.1958 52.0558 25.2858 52.0558 16.1058Z" fill="#F9D0B4"/>
<path d="M123.056 30.1058C124.376 30.1058 125.696 30.1058 127.056 30.1058C128.162 33.5637 129.265 37.0222 130.368 40.4808C130.677 41.4463 130.986 42.4118 131.304 43.4066C138.425 65.7442 138.425 65.7442 136.056 74.1058C134.067 70.6141 133.265 67.1338 132.368 63.2308C130.444 55.1145 127.942 47.2164 125.342 39.2938C125.047 38.3887 124.751 37.4836 124.447 36.5511C124.179 35.7417 123.911 34.9323 123.635 34.0984C123.056 32.1058 123.056 32.1058 123.056 30.1058Z" fill="#F9D1B6"/>
<g filter="url(#filter0_d_2_126)">
<mask id="path-8-outside-1_2_126" maskUnits="userSpaceOnUse" x="4" y="103" width="463" height="139" fill="black">
<rect fill="white" x="4" y="103" width="463" height="139"/>
<path d="M45.6625 208.84C41.2542 208.84 37.1908 208.342 33.4725 207.345C29.7542 206.387 26.4192 205.179 23.4675 203.722C20.5542 202.227 18.0433 200.694 15.935 199.122C13.8267 197.551 12.1592 196.171 10.9325 194.982L20.4775 179.572C21.7425 180.684 23.2567 181.93 25.02 183.31C26.7833 184.69 28.7575 186.012 30.9425 187.277C33.1275 188.504 35.485 189.539 38.015 190.382C40.5833 191.187 43.305 191.59 46.18 191.59C48.8633 191.59 51.2208 191.168 53.2525 190.325C55.3225 189.482 56.9517 188.236 58.14 186.587C59.3283 184.901 59.9225 182.812 59.9225 180.32C59.9225 178.058 59.4433 176.142 58.485 174.57C57.5267 172.96 56.1083 171.522 54.23 170.257C52.39 168.954 50.1092 167.689 47.3875 166.462C44.7042 165.197 41.6375 163.817 38.1875 162.322C35.6192 161.172 33.1658 159.869 30.8275 158.412C28.5275 156.917 26.4767 155.192 24.675 153.237C22.8733 151.282 21.4358 149.078 20.3625 146.625C19.3275 144.133 18.81 141.354 18.81 138.287C18.81 134.646 19.5383 131.157 20.995 127.822C22.4517 124.487 24.5217 121.517 27.205 118.91C29.9267 116.303 33.1467 114.233 36.865 112.7C40.6217 111.167 44.8 110.4 49.4 110.4C52.85 110.4 56.3 110.86 59.75 111.78C63.2 112.7 66.42 113.907 69.41 115.402C72.4 116.897 74.93 118.527 77 120.29L69.2375 134.895C67.5892 133.477 65.7108 132.212 63.6025 131.1C61.5325 129.95 59.3092 129.03 56.9325 128.34C54.5942 127.65 52.2175 127.305 49.8025 127.305C47.0808 127.305 44.7617 127.784 42.845 128.742C40.9667 129.701 39.51 130.985 38.475 132.595C37.4783 134.167 36.98 135.93 36.98 137.885C36.98 139.495 37.3058 140.875 37.9575 142.025C38.6475 143.137 39.6058 144.114 40.8325 144.958C42.0592 145.762 43.535 146.548 45.26 147.315C46.985 148.043 48.8825 148.829 50.9525 149.672C55.3992 151.551 59.4242 153.41 63.0275 155.25C66.6308 157.09 69.7167 159.141 72.285 161.402C74.8533 163.626 76.8083 166.232 78.15 169.222C79.53 172.212 80.22 175.777 80.22 179.917C80.22 185.974 78.7633 191.168 75.85 195.5C72.975 199.832 68.95 203.147 63.775 205.447C58.6 207.709 52.5625 208.84 45.6625 208.84ZM96.7962 236.9V148.12H114.449V155.307C116.825 152.432 119.777 150.209 123.304 148.637C126.83 147.066 130.625 146.28 134.689 146.28C140.362 146.28 145.403 147.641 149.811 150.362C154.258 153.084 157.746 156.802 160.276 161.517C162.845 166.232 164.129 171.58 164.129 177.56C164.129 183.463 162.864 188.792 160.334 193.545C157.804 198.26 154.335 201.997 149.926 204.757C145.556 207.479 140.611 208.84 135.091 208.84C131.066 208.84 127.271 208.016 123.706 206.367C120.141 204.681 117.055 202.304 114.449 199.237V236.9H96.7962ZM129.859 193.832C132.925 193.832 135.628 193.142 137.966 191.762C140.343 190.344 142.202 188.427 143.544 186.012C144.885 183.559 145.556 180.761 145.556 177.617C145.556 174.474 144.866 171.676 143.486 169.222C142.106 166.769 140.247 164.833 137.909 163.415C135.57 161.997 132.887 161.287 129.859 161.287C126.83 161.287 124.109 161.997 121.694 163.415C119.317 164.833 117.439 166.769 116.059 169.222C114.679 171.637 113.989 174.436 113.989 177.617C113.989 180.722 114.66 183.502 116.001 185.955C117.381 188.408 119.279 190.344 121.694 191.762C124.109 193.142 126.83 193.832 129.859 193.832ZM204.903 208.84C199.498 208.84 194.573 207.498 190.126 204.815C185.718 202.093 182.21 198.375 179.603 193.66C177.035 188.907 175.751 183.502 175.751 177.445C175.751 171.542 176.997 166.252 179.488 161.575C181.98 156.86 185.411 153.142 189.781 150.42C194.189 147.66 199.23 146.28 204.903 146.28C209.082 146.28 212.973 147.085 216.576 148.695C220.218 150.267 223.188 152.471 225.488 155.307V148.12H243.141V207H225.488V199.237C222.805 202.342 219.719 204.719 216.231 206.367C212.743 208.016 208.967 208.84 204.903 208.84ZM210.136 193.832C213.203 193.832 215.924 193.142 218.301 191.762C220.678 190.344 222.537 188.408 223.878 185.955C225.22 183.502 225.891 180.703 225.891 177.56C225.891 174.378 225.201 171.58 223.821 169.165C222.479 166.712 220.62 164.795 218.243 163.415C215.905 161.997 213.203 161.287 210.136 161.287C207.108 161.287 204.405 161.997 202.028 163.415C199.652 164.795 197.773 166.712 196.393 169.165C195.013 171.618 194.323 174.417 194.323 177.56C194.323 180.703 194.994 183.502 196.336 185.955C197.716 188.408 199.594 190.344 201.971 191.762C204.348 193.142 207.069 193.832 210.136 193.832ZM263.906 207V148.12H281.558V156.572C283.743 153.276 286.407 150.746 289.551 148.982C292.732 147.181 296.144 146.28 299.786 146.28C301.856 146.28 304.002 146.587 306.226 147.2C308.449 147.813 310.308 148.599 311.803 149.557L304.443 164.45C303.14 163.568 301.606 162.878 299.843 162.38C298.118 161.843 296.508 161.575 295.013 161.575C292.713 161.575 290.528 162.169 288.458 163.357C286.388 164.546 284.721 166.098 283.456 168.015C282.191 169.893 281.558 171.925 281.558 174.11V207H263.906ZM321.63 207V108.1H339.283V169.625L361.018 148.12H383.903L355.095 176.985L385.225 207H362.57L339.283 183.712V207H321.63ZM392.999 236.9L412.032 199.64L384.029 148.12H404.269L422.324 182.62L437.964 148.12H458.204L413.182 236.9H392.999Z"/>
</mask>
<path d="M45.6625 208.84C41.2542 208.84 37.1908 208.342 33.4725 207.345C29.7542 206.387 26.4192 205.179 23.4675 203.722C20.5542 202.227 18.0433 200.694 15.935 199.122C13.8267 197.551 12.1592 196.171 10.9325 194.982L20.4775 179.572C21.7425 180.684 23.2567 181.93 25.02 183.31C26.7833 184.69 28.7575 186.012 30.9425 187.277C33.1275 188.504 35.485 189.539 38.015 190.382C40.5833 191.187 43.305 191.59 46.18 191.59C48.8633 191.59 51.2208 191.168 53.2525 190.325C55.3225 189.482 56.9517 188.236 58.14 186.587C59.3283 184.901 59.9225 182.812 59.9225 180.32C59.9225 178.058 59.4433 176.142 58.485 174.57C57.5267 172.96 56.1083 171.522 54.23 170.257C52.39 168.954 50.1092 167.689 47.3875 166.462C44.7042 165.197 41.6375 163.817 38.1875 162.322C35.6192 161.172 33.1658 159.869 30.8275 158.412C28.5275 156.917 26.4767 155.192 24.675 153.237C22.8733 151.282 21.4358 149.078 20.3625 146.625C19.3275 144.133 18.81 141.354 18.81 138.287C18.81 134.646 19.5383 131.157 20.995 127.822C22.4517 124.487 24.5217 121.517 27.205 118.91C29.9267 116.303 33.1467 114.233 36.865 112.7C40.6217 111.167 44.8 110.4 49.4 110.4C52.85 110.4 56.3 110.86 59.75 111.78C63.2 112.7 66.42 113.907 69.41 115.402C72.4 116.897 74.93 118.527 77 120.29L69.2375 134.895C67.5892 133.477 65.7108 132.212 63.6025 131.1C61.5325 129.95 59.3092 129.03 56.9325 128.34C54.5942 127.65 52.2175 127.305 49.8025 127.305C47.0808 127.305 44.7617 127.784 42.845 128.742C40.9667 129.701 39.51 130.985 38.475 132.595C37.4783 134.167 36.98 135.93 36.98 137.885C36.98 139.495 37.3058 140.875 37.9575 142.025C38.6475 143.137 39.6058 144.114 40.8325 144.958C42.0592 145.762 43.535 146.548 45.26 147.315C46.985 148.043 48.8825 148.829 50.9525 149.672C55.3992 151.551 59.4242 153.41 63.0275 155.25C66.6308 157.09 69.7167 159.141 72.285 161.402C74.8533 163.626 76.8083 166.232 78.15 169.222C79.53 172.212 80.22 175.777 80.22 179.917C80.22 185.974 78.7633 191.168 75.85 195.5C72.975 199.832 68.95 203.147 63.775 205.447C58.6 207.709 52.5625 208.84 45.6625 208.84ZM96.7962 236.9V148.12H114.449V155.307C116.825 152.432 119.777 150.209 123.304 148.637C126.83 147.066 130.625 146.28 134.689 146.28C140.362 146.28 145.403 147.641 149.811 150.362C154.258 153.084 157.746 156.802 160.276 161.517C162.845 166.232 164.129 171.58 164.129 177.56C164.129 183.463 162.864 188.792 160.334 193.545C157.804 198.26 154.335 201.997 149.926 204.757C145.556 207.479 140.611 208.84 135.091 208.84C131.066 208.84 127.271 208.016 123.706 206.367C120.141 204.681 117.055 202.304 114.449 199.237V236.9H96.7962ZM129.859 193.832C132.925 193.832 135.628 193.142 137.966 191.762C140.343 190.344 142.202 188.427 143.544 186.012C144.885 183.559 145.556 180.761 145.556 177.617C145.556 174.474 144.866 171.676 143.486 169.222C142.106 166.769 140.247 164.833 137.909 163.415C135.57 161.997 132.887 161.287 129.859 161.287C126.83 161.287 124.109 161.997 121.694 163.415C119.317 164.833 117.439 166.769 116.059 169.222C114.679 171.637 113.989 174.436 113.989 177.617C113.989 180.722 114.66 183.502 116.001 185.955C117.381 188.408 119.279 190.344 121.694 191.762C124.109 193.142 126.83 193.832 129.859 193.832ZM204.903 208.84C199.498 208.84 194.573 207.498 190.126 204.815C185.718 202.093 182.21 198.375 179.603 193.66C177.035 188.907 175.751 183.502 175.751 177.445C175.751 171.542 176.997 166.252 179.488 161.575C181.98 156.86 185.411 153.142 189.781 150.42C194.189 147.66 199.23 146.28 204.903 146.28C209.082 146.28 212.973 147.085 216.576 148.695C220.218 150.267 223.188 152.471 225.488 155.307V148.12H243.141V207H225.488V199.237C222.805 202.342 219.719 204.719 216.231 206.367C212.743 208.016 208.967 208.84 204.903 208.84ZM210.136 193.832C213.203 193.832 215.924 193.142 218.301 191.762C220.678 190.344 222.537 188.408 223.878 185.955C225.22 183.502 225.891 180.703 225.891 177.56C225.891 174.378 225.201 171.58 223.821 169.165C222.479 166.712 220.62 164.795 218.243 163.415C215.905 161.997 213.203 161.287 210.136 161.287C207.108 161.287 204.405 161.997 202.028 163.415C199.652 164.795 197.773 166.712 196.393 169.165C195.013 171.618 194.323 174.417 194.323 177.56C194.323 180.703 194.994 183.502 196.336 185.955C197.716 188.408 199.594 190.344 201.971 191.762C204.348 193.142 207.069 193.832 210.136 193.832ZM263.906 207V148.12H281.558V156.572C283.743 153.276 286.407 150.746 289.551 148.982C292.732 147.181 296.144 146.28 299.786 146.28C301.856 146.28 304.002 146.587 306.226 147.2C308.449 147.813 310.308 148.599 311.803 149.557L304.443 164.45C303.14 163.568 301.606 162.878 299.843 162.38C298.118 161.843 296.508 161.575 295.013 161.575C292.713 161.575 290.528 162.169 288.458 163.357C286.388 164.546 284.721 166.098 283.456 168.015C282.191 169.893 281.558 171.925 281.558 174.11V207H263.906ZM321.63 207V108.1H339.283V169.625L361.018 148.12H383.903L355.095 176.985L385.225 207H362.57L339.283 183.712V207H321.63ZM392.999 236.9L412.032 199.64L384.029 148.12H404.269L422.324 182.62L437.964 148.12H458.204L413.182 236.9H392.999Z" fill="white"/>
<path d="M33.4725 207.345L34.767 202.515L34.7437 202.509L34.7204 202.503L33.4725 207.345ZM23.4675 203.722L21.1847 208.171L21.2196 208.189L21.2548 208.206L23.4675 203.722ZM15.935 199.122L18.9233 195.114L18.9233 195.114L15.935 199.122ZM10.9325 194.982L6.68185 192.35L4.56181 195.772L7.45352 198.574L10.9325 194.982ZM20.4775 179.572L23.7781 175.817L19.3388 171.916L16.2269 176.94L20.4775 179.572ZM25.02 183.31L28.1015 179.372L28.1015 179.372L25.02 183.31ZM30.9425 187.277L28.4373 191.605L28.466 191.621L28.4948 191.637L30.9425 187.277ZM38.015 190.382L36.4339 195.126L36.4766 195.14L36.5196 195.154L38.015 190.382ZM53.2525 190.325L51.366 185.695L51.3508 185.701L51.3356 185.707L53.2525 190.325ZM58.14 186.587L62.1959 189.512L62.2118 189.489L62.2274 189.467L58.14 186.587ZM58.485 174.57L54.1885 177.127L54.2022 177.15L54.216 177.173L58.485 174.57ZM54.23 170.257L51.3399 174.338L51.3881 174.372L51.437 174.405L54.23 170.257ZM47.3875 166.462L45.2554 170.985L45.2941 171.003L45.333 171.021L47.3875 166.462ZM38.1875 162.322L36.1442 166.886L36.1717 166.898L36.1995 166.91L38.1875 162.322ZM30.8275 158.412L28.1026 162.605L28.1429 162.631L28.1838 162.656L30.8275 158.412ZM24.675 153.237L28.3518 149.849L28.3518 149.849L24.675 153.237ZM20.3625 146.625L15.745 148.543L15.763 148.586L15.7817 148.629L20.3625 146.625ZM20.995 127.822L25.577 129.824L25.577 129.824L20.995 127.822ZM27.205 118.91L23.7466 115.299L23.7338 115.311L23.7211 115.324L27.205 118.91ZM36.865 112.7L34.9755 108.071L34.9672 108.074L34.9589 108.078L36.865 112.7ZM59.75 111.78L61.0383 106.949L61.0383 106.949L59.75 111.78ZM69.41 115.402L71.6461 110.93L71.6461 110.93L69.41 115.402ZM77 120.29L81.4151 122.637L83.3007 119.089L80.2423 116.484L77 120.29ZM69.2375 134.895L65.9763 138.685L70.7173 142.764L73.6526 137.242L69.2375 134.895ZM63.6025 131.1L61.1743 135.471L61.2221 135.497L61.2705 135.523L63.6025 131.1ZM56.9325 128.34L55.5174 133.136L55.5279 133.139L55.5384 133.142L56.9325 128.34ZM42.845 128.742L40.6089 124.27L40.5908 124.279L40.5726 124.289L42.845 128.742ZM38.475 132.595L34.2691 129.891L34.2607 129.904L34.2525 129.917L38.475 132.595ZM37.9575 142.025L33.6074 144.49L33.6566 144.577L33.7093 144.662L37.9575 142.025ZM40.8325 144.958L37.9999 149.078L38.0442 149.108L38.0892 149.138L40.8325 144.958ZM45.26 147.315L43.2293 151.884L43.272 151.903L43.3151 151.921L45.26 147.315ZM50.9525 149.672L52.8981 145.067L52.8686 145.054L52.839 145.042L50.9525 149.672ZM63.0275 155.25L60.7536 159.703L60.7536 159.703L63.0275 155.25ZM72.285 161.402L68.9806 165.155L68.9965 165.169L69.0125 165.183L72.285 161.402ZM78.15 169.222L73.5882 171.269L73.5991 171.294L73.6102 171.318L78.15 169.222ZM75.85 195.5L71.7011 192.71L71.6925 192.722L71.6841 192.735L75.85 195.5ZM63.775 205.447L65.7773 210.029L65.7915 210.023L65.8057 210.017L63.775 205.447ZM45.6625 208.84V203.84C41.6293 203.84 38.0072 203.384 34.767 202.515L33.4725 207.345L32.178 212.175C36.3744 213.299 40.879 213.84 45.6625 213.84V208.84ZM33.4725 207.345L34.7204 202.503C31.2815 201.617 28.2775 200.521 25.6802 199.239L23.4675 203.722L21.2548 208.206C24.5608 209.838 28.2268 211.156 32.2246 212.187L33.4725 207.345ZM23.4675 203.722L25.7503 199.274C23.0267 197.876 20.7629 196.485 18.9233 195.114L15.935 199.122L12.9467 203.131C15.3238 204.903 18.0816 206.579 21.1847 208.171L23.4675 203.722ZM15.935 199.122L18.9233 195.114C16.9061 193.61 15.4249 192.373 14.4115 191.391L10.9325 194.982L7.45352 198.574C8.89343 199.969 10.7473 201.492 12.9467 203.131L15.935 199.122ZM10.9325 194.982L15.1831 197.615L24.7282 182.205L20.4775 179.572L16.2269 176.94L6.68185 192.35L10.9325 194.982ZM20.4775 179.572L17.1769 183.328C18.532 184.519 20.1231 185.827 21.9385 187.248L25.02 183.31L28.1015 179.372C26.3903 178.033 24.953 176.849 23.7781 175.817L20.4775 179.572ZM25.02 183.31L21.9385 187.248C23.906 188.787 26.0763 190.238 28.4373 191.605L30.9425 187.277L33.4477 182.95C31.4387 181.787 29.6607 180.593 28.1015 179.372L25.02 183.31ZM30.9425 187.277L28.4948 191.637C30.9729 193.029 33.6227 194.189 36.4339 195.126L38.015 190.382L39.5961 185.639C37.3474 184.889 35.2821 183.98 33.3902 182.918L30.9425 187.277ZM38.015 190.382L36.5196 195.154C39.6038 196.12 42.8324 196.59 46.18 196.59V191.59V186.59C43.7776 186.59 41.5629 186.255 39.5104 185.611L38.015 190.382ZM46.18 191.59V196.59C49.3804 196.59 52.4124 196.087 55.1694 194.943L53.2525 190.325L51.3356 185.707C50.0293 186.249 48.3462 186.59 46.18 186.59V191.59ZM53.2525 190.325L55.139 194.955C57.988 193.795 60.4047 191.996 62.1959 189.512L58.14 186.587L54.0841 183.663C53.4986 184.476 52.657 185.169 51.366 185.695L53.2525 190.325ZM58.14 186.587L62.2274 189.467C64.1239 186.775 64.9225 183.625 64.9225 180.32H59.9225H54.9225C54.9225 181.999 54.5327 183.026 54.0526 183.708L58.14 186.587ZM59.9225 180.32H64.9225C64.9225 177.35 64.2889 174.484 62.754 171.967L58.485 174.57L54.216 177.173C54.5978 177.799 54.9225 178.767 54.9225 180.32H59.9225ZM58.485 174.57L62.7815 172.013C61.375 169.65 59.388 167.703 57.023 166.11L54.23 170.257L51.437 174.405C52.8286 175.342 53.6784 176.27 54.1885 177.127L58.485 174.57ZM54.23 170.257L57.1201 166.177C54.949 164.64 52.3689 163.223 49.442 161.904L47.3875 166.462L45.333 171.021C47.8495 172.155 49.831 173.269 51.3399 174.338L54.23 170.257ZM47.3875 166.462L49.5196 161.94C46.778 160.647 43.6618 159.245 40.1755 157.735L38.1875 162.322L36.1995 166.91C39.6132 168.39 42.6303 169.748 45.2554 170.985L47.3875 166.462ZM38.1875 162.322L40.2308 157.759C37.8652 156.7 35.6128 155.503 33.4712 154.169L30.8275 158.412L28.1838 162.656C30.7188 164.236 33.3731 165.645 36.1442 166.886L38.1875 162.322ZM30.8275 158.412L33.5524 154.22C31.5908 152.945 29.862 151.488 28.3518 149.849L24.675 153.237L20.9982 156.626C23.0913 158.897 25.4642 160.89 28.1026 162.605L30.8275 158.412ZM24.675 153.237L28.3518 149.849C26.929 148.305 25.7958 146.57 24.9433 144.621L20.3625 146.625L15.7817 148.629C17.0758 151.587 18.8177 154.26 20.9982 156.626L24.675 153.237ZM20.3625 146.625L24.98 144.707C24.2297 142.901 23.81 140.785 23.81 138.287H18.81H13.81C13.81 141.923 14.4253 145.366 15.745 148.543L20.3625 146.625ZM18.81 138.287H23.81C23.81 135.334 24.3962 132.527 25.577 129.824L20.995 127.822L16.413 125.821C14.6805 129.788 13.81 133.958 13.81 138.287H18.81ZM20.995 127.822L25.577 129.824C26.7666 127.1 28.4577 124.664 30.6889 122.496L27.205 118.91L23.7211 115.324C20.5856 118.369 18.1367 121.875 16.413 125.821L20.995 127.822ZM27.205 118.91L30.6634 122.521C32.9056 120.374 35.5896 118.634 38.7712 117.322L36.865 112.7L34.9589 108.078C30.7037 109.832 26.9477 112.233 23.7466 115.299L27.205 118.91ZM36.865 112.7L38.7545 117.329C41.8364 116.071 45.3618 115.4 49.4 115.4V110.4V105.4C44.2382 105.4 39.4069 106.262 34.9755 108.071L36.865 112.7ZM49.4 110.4V115.4C52.4001 115.4 55.4172 115.799 58.4617 116.611L59.75 111.78L61.0383 106.949C57.1828 105.921 53.3 105.4 49.4 105.4V110.4ZM59.75 111.78L58.4617 116.611C61.6065 117.45 64.5067 118.541 67.1739 119.875L69.41 115.402L71.6461 110.93C68.3334 109.274 64.7935 107.95 61.0383 106.949L59.75 111.78ZM69.41 115.402L67.1739 119.875C69.8818 121.229 72.0556 122.646 73.7577 124.096L77 120.29L80.2423 116.484C77.8044 114.407 74.9182 112.566 71.6461 110.93L69.41 115.402ZM77 120.29L72.5849 117.943L64.8224 132.548L69.2375 134.895L73.6526 137.242L81.4151 122.637L77 120.29ZM69.2375 134.895L72.4987 131.105C70.5397 129.419 68.3439 127.948 65.9346 126.677L63.6025 131.1L61.2705 135.523C63.0777 136.476 64.6387 137.534 65.9763 138.685L69.2375 134.895ZM63.6025 131.1L66.0307 126.729C63.6188 125.389 61.0468 124.328 58.3266 123.538L56.9325 128.34L55.5384 133.142C57.5715 133.732 59.4462 134.511 61.1743 135.471L63.6025 131.1ZM56.9325 128.34L58.3476 123.544C55.5542 122.72 52.7012 122.305 49.8025 122.305V127.305V132.305C51.7338 132.305 53.6341 132.58 55.5174 133.136L56.9325 128.34ZM49.8025 127.305V122.305C46.5084 122.305 43.3817 122.884 40.6089 124.27L42.845 128.742L45.0811 133.215C46.1417 132.684 47.6533 132.305 49.8025 132.305V127.305ZM42.845 128.742L40.5726 124.289C37.9887 125.607 35.8301 127.463 34.2691 129.891L38.475 132.595L42.6809 135.299C43.1899 134.507 43.9446 133.795 45.1174 133.196L42.845 128.742ZM38.475 132.595L34.2525 129.917C32.7217 132.331 31.98 135.032 31.98 137.885H36.98H41.98C41.98 136.828 42.2349 136.002 42.6975 135.273L38.475 132.595ZM36.98 137.885H31.98C31.98 140.172 32.446 142.441 33.6074 144.49L37.9575 142.025L42.3076 139.56C42.1657 139.309 41.98 138.818 41.98 137.885H36.98ZM37.9575 142.025L33.7093 144.662C34.8105 146.436 36.2821 147.897 37.9999 149.078L40.8325 144.958L43.6652 140.837C42.9296 140.332 42.4845 139.837 42.2057 139.388L37.9575 142.025ZM40.8325 144.958L38.0892 149.138C39.596 150.127 41.3229 151.037 43.2293 151.884L45.26 147.315L47.2907 142.746C45.7471 142.06 44.5223 141.398 43.5758 140.777L40.8325 144.958ZM45.26 147.315L43.3151 151.921C45.0628 152.659 46.9801 153.453 49.066 154.303L50.9525 149.672L52.839 145.042C50.7849 144.205 48.9072 143.428 47.2049 142.709L45.26 147.315ZM50.9525 149.672L49.0069 154.278C53.3628 156.118 57.2759 157.927 60.7536 159.703L63.0275 155.25L65.3014 150.797C61.5724 148.893 57.4355 146.983 52.8981 145.067L50.9525 149.672ZM63.0275 155.25L60.7536 159.703C64.051 161.387 66.7759 163.213 68.9806 165.155L72.285 161.402L75.5894 157.65C72.6574 155.068 69.2107 152.793 65.3014 150.797L63.0275 155.25ZM72.285 161.402L69.0125 165.183C71.0506 166.947 72.5559 168.969 73.5882 171.269L78.15 169.222L82.7118 167.176C81.0608 163.496 78.6561 160.305 75.5575 157.622L72.285 161.402ZM78.15 169.222L73.6102 171.318C74.6195 173.505 75.22 176.321 75.22 179.917H80.22H85.22C85.22 175.234 84.4405 170.92 82.6898 167.127L78.15 169.222ZM80.22 179.917H75.22C75.22 185.144 73.9749 189.329 71.7011 192.71L75.85 195.5L79.9989 198.29C83.5517 193.008 85.22 186.805 85.22 179.917H80.22ZM75.85 195.5L71.6841 192.735C69.3816 196.204 66.1311 198.929 61.7443 200.878L63.775 205.447L65.8057 210.017C71.7689 207.366 76.5684 203.459 80.0159 198.265L75.85 195.5ZM63.775 205.447L61.7727 200.866C57.3528 202.798 52.0225 203.84 45.6625 203.84V208.84V213.84C53.1025 213.84 59.8472 212.621 65.7773 210.029L63.775 205.447ZM96.7962 236.9H91.7962V241.9H96.7962V236.9ZM96.7962 148.12V143.12H91.7962V148.12H96.7962ZM114.449 148.12H119.449V143.12H114.449V148.12ZM114.449 155.307H109.449V169.203L118.302 158.493L114.449 155.307ZM123.304 148.637L121.268 144.07L121.268 144.07L123.304 148.637ZM149.811 150.362L147.185 154.617L147.193 154.622L147.201 154.627L149.811 150.362ZM160.276 161.517L155.87 163.882L155.878 163.895L155.885 163.909L160.276 161.517ZM160.334 193.545L164.739 195.909L164.743 195.902L164.747 195.894L160.334 193.545ZM149.926 204.757L152.569 209.002L152.579 208.995L149.926 204.757ZM123.706 206.367L121.568 210.887L121.588 210.897L121.608 210.906L123.706 206.367ZM114.449 199.237L118.258 195.999L109.449 185.635V199.237H114.449ZM114.449 236.9V241.9H119.449V236.9H114.449ZM137.966 191.762L140.507 196.069L140.518 196.062L140.528 196.056L137.966 191.762ZM143.544 186.012L147.914 188.441L147.923 188.426L147.931 188.412L143.544 186.012ZM143.486 169.222L139.128 171.674L139.128 171.674L143.486 169.222ZM121.694 163.415L119.162 159.104L119.146 159.112L119.131 159.121L121.694 163.415ZM116.059 169.222L120.4 171.703L120.408 171.689L120.417 171.674L116.059 169.222ZM116.001 185.955L111.614 188.354L111.629 188.38L111.643 188.406L116.001 185.955ZM121.694 191.762L119.162 196.074L119.187 196.089L119.213 196.104L121.694 191.762ZM96.7962 236.9H101.796V148.12H96.7962H91.7962V236.9H96.7962ZM96.7962 148.12V153.12H114.449V148.12V143.12H96.7962V148.12ZM114.449 148.12H109.449V155.307H114.449H119.449V148.12H114.449ZM114.449 155.307L118.302 158.493C120.17 156.234 122.491 154.474 125.339 153.205L123.304 148.637L121.268 144.07C117.063 145.945 113.481 148.631 110.595 152.122L114.449 155.307ZM123.304 148.637L125.339 153.205C128.192 151.933 131.289 151.28 134.689 151.28V146.28V141.28C129.962 141.28 125.469 142.198 121.268 144.07L123.304 148.637ZM134.689 146.28V151.28C139.526 151.28 143.64 152.429 147.185 154.617L149.811 150.362L152.438 146.108C147.166 142.853 141.199 141.28 134.689 141.28V146.28ZM149.811 150.362L147.201 154.627C150.87 156.873 153.748 159.927 155.87 163.882L160.276 161.517L164.682 159.153C161.744 153.678 157.645 149.295 152.421 146.098L149.811 150.362ZM160.276 161.517L155.885 163.909C158.01 167.81 159.129 172.319 159.129 177.56H164.129H169.129C169.129 170.841 167.679 164.655 164.667 159.126L160.276 161.517ZM164.129 177.56H159.129C159.129 182.725 158.029 187.234 155.92 191.196L160.334 193.545L164.747 195.894C167.699 190.35 169.129 184.202 169.129 177.56H164.129ZM160.334 193.545L155.928 191.181C153.797 195.153 150.922 198.235 147.273 200.52L149.926 204.757L152.579 208.995C157.747 205.76 161.811 201.367 164.739 195.909L160.334 193.545ZM149.926 204.757L147.283 200.513C143.764 202.705 139.747 203.84 135.091 203.84V208.84V213.84C141.475 213.84 147.349 212.253 152.569 209.002L149.926 204.757ZM135.091 208.84V203.84C131.772 203.84 128.695 203.166 125.805 201.829L123.706 206.367L121.608 210.906C125.847 212.866 130.36 213.84 135.091 213.84V208.84ZM123.706 206.367L125.845 201.848C122.935 200.471 120.415 198.536 118.258 195.999L114.449 199.237L110.639 202.476C113.696 206.072 117.348 208.891 121.568 210.887L123.706 206.367ZM114.449 199.237H109.449V236.9H114.449H119.449V199.237H114.449ZM114.449 236.9V231.9H96.7962V236.9V241.9H114.449V236.9ZM129.859 193.832V198.832C133.701 198.832 137.303 197.959 140.507 196.069L137.966 191.762L135.425 187.456C133.952 188.326 132.15 188.832 129.859 188.832V193.832ZM137.966 191.762L140.528 196.056C143.66 194.187 146.144 191.627 147.914 188.441L143.544 186.012L139.173 183.584C138.26 185.228 137.025 186.501 135.404 187.469L137.966 191.762ZM143.544 186.012L147.931 188.412C149.722 185.135 150.556 181.494 150.556 177.617H145.556H140.556C140.556 180.028 140.048 181.983 139.157 183.613L143.544 186.012ZM145.556 177.617H150.556C150.556 173.718 149.692 170.057 147.844 166.771L143.486 169.222L139.128 171.674C140.04 173.294 140.556 175.231 140.556 177.617H145.556ZM143.486 169.222L147.844 166.771C146.055 163.591 143.598 161.018 140.502 159.14L137.909 163.415L135.316 167.69C136.896 168.649 138.157 169.947 139.128 171.674L143.486 169.222ZM137.909 163.415L140.502 159.14C137.299 157.198 133.7 156.287 129.859 156.287V161.287V166.287C132.074 166.287 133.841 166.796 135.316 167.69L137.909 163.415ZM129.859 161.287V156.287C126.015 156.287 122.406 157.198 119.162 159.104L121.694 163.415L124.226 167.726C125.811 166.795 127.646 166.287 129.859 166.287V161.287ZM121.694 163.415L119.131 159.121C115.992 160.995 113.501 163.571 111.701 166.771L116.059 169.222L120.417 171.674C121.377 169.967 122.642 168.672 124.256 167.709L121.694 163.415ZM116.059 169.222L111.717 166.742C109.847 170.015 108.989 173.693 108.989 177.617H113.989H118.989C118.989 175.179 119.511 173.26 120.4 171.703L116.059 169.222ZM113.989 177.617H108.989C108.989 181.467 109.827 185.086 111.614 188.354L116.001 185.955L120.388 183.556C119.492 181.917 118.989 179.978 118.989 177.617H113.989ZM116.001 185.955L111.643 188.406C113.454 191.626 115.98 194.205 119.162 196.074L121.694 191.762L124.226 187.451C122.577 186.483 121.308 185.191 120.359 183.504L116.001 185.955ZM121.694 191.762L119.213 196.104C122.45 197.953 126.04 198.832 129.859 198.832V193.832V188.832C127.621 188.832 125.768 188.332 124.174 187.421L121.694 191.762ZM190.126 204.815L187.499 209.069L187.521 209.083L187.543 209.096L190.126 204.815ZM179.603 193.66L175.204 196.037L175.216 196.058L175.228 196.079L179.603 193.66ZM179.488 161.575L183.901 163.926L183.905 163.919L183.909 163.911L179.488 161.575ZM189.781 150.42L192.424 154.664L192.434 154.658L189.781 150.42ZM216.576 148.695L214.536 153.26L214.565 153.273L214.595 153.286L216.576 148.695ZM225.488 155.307L221.605 158.457L230.488 169.413V155.307H225.488ZM225.488 148.12V143.12H220.488V148.12H225.488ZM243.141 148.12H248.141V143.12H243.141V148.12ZM243.141 207V212H248.141V207H243.141ZM225.488 207H220.488V212H225.488V207ZM225.488 199.237H230.488V185.805L221.705 195.968L225.488 199.237ZM216.231 206.367L218.367 210.888L218.367 210.888L216.231 206.367ZM218.301 191.762L220.812 196.086L220.837 196.071L220.863 196.056L218.301 191.762ZM223.878 185.955L219.492 183.556L219.492 183.556L223.878 185.955ZM223.821 169.165L219.434 171.564L219.456 171.605L219.48 171.646L223.821 169.165ZM218.243 163.415L215.65 167.69L215.691 167.715L215.733 167.739L218.243 163.415ZM202.028 163.415L204.539 167.739L204.565 167.724L204.591 167.709L202.028 163.415ZM196.393 169.165L192.035 166.714L192.035 166.714L196.393 169.165ZM196.336 185.955L191.949 188.354L191.963 188.38L191.978 188.406L196.336 185.955ZM201.971 191.762L199.409 196.056L199.434 196.071L199.46 196.086L201.971 191.762ZM204.903 208.84V203.84C200.37 203.84 196.344 202.727 192.709 200.534L190.126 204.815L187.543 209.096C192.801 212.269 198.627 213.84 204.903 213.84V208.84ZM190.126 204.815L192.753 200.561C189.105 198.309 186.187 195.235 183.979 191.241L179.603 193.66L175.228 196.079C178.233 201.515 182.33 205.878 187.499 209.069L190.126 204.815ZM179.603 193.66L184.002 191.283C181.874 187.345 180.751 182.774 180.751 177.445H175.751H170.751C170.751 184.23 172.196 190.469 175.204 196.037L179.603 193.66ZM175.751 177.445H180.751C180.751 172.267 181.837 167.8 183.901 163.926L179.488 161.575L175.076 159.224C172.156 164.704 170.751 170.817 170.751 177.445H175.751ZM179.488 161.575L183.909 163.911C186.003 159.949 188.833 156.901 192.424 154.664L189.781 150.42L187.138 146.176C181.989 149.382 177.957 153.771 175.068 159.239L179.488 161.575ZM189.781 150.42L192.434 154.658C195.975 152.441 200.08 151.28 204.903 151.28V146.28V141.28C198.38 141.28 192.403 142.879 187.128 146.182L189.781 150.42ZM204.903 146.28V151.28C208.421 151.28 211.612 151.953 214.536 153.26L216.576 148.695L218.616 144.13C214.333 142.217 209.743 141.28 204.903 141.28V146.28ZM216.576 148.695L214.595 153.286C217.56 154.566 219.856 156.3 221.605 158.457L225.488 155.307L229.372 152.158C226.521 148.642 222.875 145.968 218.557 144.104L216.576 148.695ZM225.488 155.307H230.488V148.12H225.488H220.488V155.307H225.488ZM225.488 148.12V153.12H243.141V148.12V143.12H225.488V148.12ZM243.141 148.12H238.141V207H243.141H248.141V148.12H243.141ZM243.141 207V202H225.488V207V212H243.141V207ZM225.488 207H230.488V199.237H225.488H220.488V207H225.488ZM225.488 199.237L221.705 195.968C219.448 198.58 216.913 200.515 214.095 201.847L216.231 206.367L218.367 210.888C222.525 208.923 226.162 206.105 229.271 202.507L225.488 199.237ZM216.231 206.367L214.095 201.847C211.31 203.163 208.268 203.84 204.903 203.84V208.84V213.84C209.665 213.84 214.175 212.869 218.367 210.888L216.231 206.367ZM210.136 193.832V198.832C213.98 198.832 217.587 197.959 220.812 196.086L218.301 191.762L215.79 187.439C214.262 188.326 212.425 188.832 210.136 188.832V193.832ZM218.301 191.762L220.863 196.056C224.014 194.175 226.5 191.582 228.265 188.354L223.878 185.955L219.492 183.556C218.573 185.235 217.341 186.513 215.739 187.469L218.301 191.762ZM223.878 185.955L228.265 188.354C230.057 185.078 230.891 181.436 230.891 177.56H225.891H220.891C220.891 179.971 220.383 181.926 219.492 183.556L223.878 185.955ZM225.891 177.56H230.891C230.891 173.635 230.033 169.958 228.162 166.684L223.821 169.165L219.48 171.646C220.369 173.202 220.891 175.121 220.891 177.56H225.891ZM223.821 169.165L228.208 166.766C226.436 163.526 223.934 160.938 220.754 159.091L218.243 163.415L215.733 167.739C217.306 168.652 218.522 169.897 219.434 171.564L223.821 169.165ZM218.243 163.415L220.836 159.14C217.624 157.192 214.003 156.287 210.136 156.287V161.287V166.287C212.402 166.287 214.186 166.802 215.65 167.69L218.243 163.415ZM210.136 161.287V156.287C206.293 156.287 202.689 157.198 199.466 159.121L202.028 163.415L204.591 167.709C206.121 166.796 207.922 166.287 210.136 166.287V161.287ZM202.028 163.415L199.518 159.091C196.35 160.93 193.842 163.502 192.035 166.714L196.393 169.165L200.751 171.616C201.705 169.921 202.954 168.66 204.539 167.739L202.028 163.415ZM196.393 169.165L192.035 166.714C190.187 170 189.323 173.66 189.323 177.56H194.323H199.323C199.323 175.173 199.84 173.237 200.751 171.616L196.393 169.165ZM194.323 177.56H189.323C189.323 181.436 190.157 185.078 191.949 188.354L196.336 185.955L200.723 183.556C199.831 181.926 199.323 179.971 199.323 177.56H194.323ZM196.336 185.955L191.978 188.406C193.778 191.606 196.27 194.183 199.409 196.056L201.971 191.762L204.533 187.469C202.919 186.505 201.654 185.21 200.694 183.504L196.336 185.955ZM201.971 191.762L199.46 196.086C202.685 197.959 206.292 198.832 210.136 198.832V193.832V188.832C207.846 188.832 206.01 188.326 204.482 187.439L201.971 191.762ZM263.906 207H258.906V212H263.906V207ZM263.906 148.12V143.12H258.906V148.12H263.906ZM281.558 148.12H286.558V143.12H281.558V148.12ZM281.558 156.572H276.558V173.167L285.726 159.335L281.558 156.572ZM289.551 148.982L291.997 153.343L292.006 153.338L292.014 153.333L289.551 148.982ZM306.226 147.2L307.555 142.38L307.555 142.38L306.226 147.2ZM311.803 149.557L316.286 151.773L318.268 147.762L314.501 145.348L311.803 149.557ZM304.443 164.45L301.642 168.591L306.387 171.802L308.926 166.665L304.443 164.45ZM299.843 162.38L298.358 167.154L298.42 167.174L298.483 167.192L299.843 162.38ZM288.458 163.357L285.969 159.021L285.969 159.021L288.458 163.357ZM283.456 168.015L287.603 170.808L287.616 170.789L287.629 170.769L283.456 168.015ZM281.558 207V212H286.558V207H281.558ZM263.906 207H268.906V148.12H263.906H258.906V207H263.906ZM263.906 148.12V153.12H281.558V148.12V143.12H263.906V148.12ZM281.558 148.12H276.558V156.572H281.558H286.558V148.12H281.558ZM281.558 156.572L285.726 159.335C287.515 156.634 289.612 154.681 291.997 153.343L289.551 148.982L287.104 144.622C283.203 146.81 279.971 149.917 277.39 153.81L281.558 156.572ZM289.551 148.982L292.014 153.333C294.448 151.955 297.011 151.28 299.786 151.28V146.28V141.28C295.277 141.28 291.017 142.406 287.087 144.632L289.551 148.982ZM299.786 146.28V151.28C301.358 151.28 303.057 151.513 304.896 152.02L306.226 147.2L307.555 142.38C304.947 141.661 302.353 141.28 299.786 141.28V146.28ZM306.226 147.2L304.896 152.02C306.771 152.537 308.137 153.147 309.105 153.767L311.803 149.557L314.501 145.348C312.479 144.052 310.126 143.089 307.555 142.38L306.226 147.2ZM311.803 149.557L307.321 147.342L299.961 162.235L304.443 164.45L308.926 166.665L316.286 151.773L311.803 149.557ZM304.443 164.45L307.245 160.309C305.434 159.084 303.397 158.189 301.203 157.568L299.843 162.38L298.483 167.192C299.816 167.568 300.846 168.053 301.642 168.591L304.443 164.45ZM299.843 162.38L301.328 157.606C299.219 156.95 297.104 156.575 295.013 156.575V161.575V166.575C295.912 166.575 297.017 166.737 298.358 167.154L299.843 162.38ZM295.013 161.575V156.575C291.806 156.575 288.766 157.415 285.969 159.021L288.458 163.357L290.947 167.694C292.29 166.923 293.62 166.575 295.013 166.575V161.575ZM288.458 163.357L285.969 159.021C283.249 160.582 280.995 162.667 279.283 165.261L283.456 168.015L287.629 170.769C288.446 169.53 289.527 168.509 290.947 167.694L288.458 163.357ZM283.456 168.015L279.308 165.222C277.509 167.894 276.558 170.892 276.558 174.11H281.558H286.558C286.558 172.958 286.872 171.893 287.603 170.808L283.456 168.015ZM281.558 174.11H276.558V207H281.558H286.558V174.11H281.558ZM281.558 207V202H263.906V207V212H281.558V207ZM321.63 207H316.63V212H321.63V207ZM321.63 108.1V103.1H316.63V108.1H321.63ZM339.283 108.1H344.283V103.1H339.283V108.1ZM339.283 169.625H334.283V181.606L342.799 173.179L339.283 169.625ZM361.018 148.12V143.12H358.962L357.501 144.566L361.018 148.12ZM383.903 148.12L387.442 151.652L395.957 143.12H383.903V148.12ZM355.095 176.985L351.556 173.453L348.021 176.995L351.566 180.527L355.095 176.985ZM385.225 207V212H397.329L388.754 203.458L385.225 207ZM362.57 207L359.035 210.536L360.499 212H362.57V207ZM339.283 183.712L342.818 180.177L334.283 171.641V183.712H339.283ZM339.283 207V212H344.283V207H339.283ZM321.63 207H326.63V108.1H321.63H316.63V207H321.63ZM321.63 108.1V113.1H339.283V108.1V103.1H321.63V108.1ZM339.283 108.1H334.283V169.625H339.283H344.283V108.1H339.283ZM339.283 169.625L342.799 173.179L364.534 151.674L361.018 148.12L357.501 144.566L335.766 166.071L339.283 169.625ZM361.018 148.12V153.12H383.903V148.12V143.12H361.018V148.12ZM383.903 148.12L380.364 144.588L351.556 173.453L355.095 176.985L358.634 180.517L387.442 151.652L383.903 148.12ZM355.095 176.985L351.566 180.527L381.696 210.542L385.225 207L388.754 203.458L358.624 173.443L355.095 176.985ZM385.225 207V202H362.57V207V212H385.225V207ZM362.57 207L366.106 203.464L342.818 180.177L339.283 183.712L335.747 187.248L359.035 210.536L362.57 207ZM339.283 183.712H334.283V207H339.283H344.283V183.712H339.283ZM339.283 207V202H321.63V207V212H339.283V207ZM392.999 236.9L388.547 234.626L384.831 241.9H392.999V236.9ZM412.032 199.64L416.485 201.914L417.683 199.568L416.425 197.252L412.032 199.64ZM384.029 148.12V143.12H375.621L379.636 150.508L384.029 148.12ZM404.269 148.12L408.699 145.802L407.296 143.12H404.269V148.12ZM422.324 182.62L417.894 184.938L422.647 194.019L426.878 184.684L422.324 182.62ZM437.964 148.12V143.12H434.741L433.41 146.056L437.964 148.12ZM458.204 148.12L462.664 150.381L466.346 143.12H458.204V148.12ZM413.182 236.9V241.9H416.252L417.641 239.161L413.182 236.9ZM392.999 236.9L397.452 239.174L416.485 201.914L412.032 199.64L407.579 197.366L388.547 234.626L392.999 236.9ZM412.032 199.64L416.425 197.252L388.422 145.732L384.029 148.12L379.636 150.508L407.639 202.028L412.032 199.64ZM384.029 148.12V153.12H404.269V148.12V143.12H384.029V148.12ZM404.269 148.12L399.839 150.438L417.894 184.938L422.324 182.62L426.754 180.302L408.699 145.802L404.269 148.12ZM422.324 182.62L426.878 184.684L442.518 150.184L437.964 148.12L433.41 146.056L417.77 180.556L422.324 182.62ZM437.964 148.12V153.12H458.204V148.12V143.12H437.964V148.12ZM458.204 148.12L453.745 145.859L408.722 234.639L413.182 236.9L417.641 239.161L462.664 150.381L458.204 148.12ZM413.182 236.9V231.9H392.999V236.9V241.9H413.182V236.9Z" fill="#F69A61" mask="url(#path-8-outside-1_2_126)"/>
</g>
<defs>
<filter id="filter0_d_2_126" x="0.561829" y="103.1" width="469.784" height="146.8" filterUnits="userSpaceOnUse" color-interpolation-filters="sRGB">
<feFlood flood-opacity="0" result="BackgroundImageFix"/>
<feColorMatrix in="SourceAlpha" type="matrix" values="0 0 0 0 0 0 0 0 0 0 0 0 0 0 0 0 0 0 127 0" result="hardAlpha"/>
<feOffset dy="4"/>
<feGaussianBlur stdDeviation="2"/>
<feComposite in2="hardAlpha" operator="out"/>
<feColorMatrix type="matrix" values="0 0 0 0 0 0 0 0 0 0 0 0 0 0 0 0 0 0 0.25 0"/>
<feBlend mode="normal" in2="BackgroundImageFix" result="effect1_dropShadow_2_126"/>
<feBlend mode="normal" in="SourceGraphic" in2="effect1_dropShadow_2_126" result="shape"/>
</filter>
</defs>
</svg>
